<?xml version="1.0" standalone="no"?>
<!DOCTYPE svg PUBLIC "-//W3C//DTD SVG 20010904//EN"
 "http://www.w3.org/TR/2001/REC-SVG-20010904/DTD/svg10.dtd">
<svg version="1.0" xmlns="http://www.w3.org/2000/svg"
 width="1280.000000pt" height="1280.000000pt" viewBox="0 0 1280.000000 1280.000000"
 preserveAspectRatio="xMidYMid meet">
<metadata>
Created by potrace 1.14, written by Peter Selinger 2001-2017
</metadata>
<g transform="translate(0.000000,1280.000000) scale(0.100000,-0.100000)"
fill="#000000" stroke="none">
<path d="M0 6400 l0 -6400 6400 0 6400 0 0 6400 0 6400 -6400 0 -6400 0 0
-6400z m6051 2760 c15 -41 46 -127 69 -190 23 -63 60 -162 82 -220 22 -58 48
-129 59 -157 10 -29 28 -77 38 -105 11 -29 34 -93 51 -143 17 -49 36 -100 41
-112 5 -13 13 -33 18 -45 6 -13 40 -106 76 -207 36 -101 86 -239 111 -305 25
-67 54 -145 65 -173 108 -296 172 -469 196 -538 14 -38 29 -79 34 -90 5 -11
27 -72 49 -135 22 -63 44 -124 49 -135 5 -11 14 -36 21 -55 7 -19 16 -45 21
-57 5 -13 13 -33 18 -45 5 -13 14 -39 21 -58 7 -19 20 -53 30 -75 10 -22 33
-80 50 -130 36 -101 43 -120 58 -155 6 -14 23 -61 38 -105 14 -44 33 -96 41
-115 25 -59 29 -69 113 -300 45 -124 90 -247 100 -275 40 -109 83 -226 131
-360 28 -77 55 -149 60 -160 4 -11 31 -83 59 -160 28 -77 60 -162 70 -190 10
-27 55 -149 100 -270 45 -121 85 -229 90 -240 44 -107 68 -190 57 -197 -15
-10 -1158 -10 -1173 0 -5 4 -20 32 -31 62 -66 174 -83 219 -94 255 -7 22 -17
44 -21 50 -4 5 -8 17 -8 27 0 10 -4 26 -9 36 -5 9 -19 44 -31 77 -12 33 -26
70 -31 83 -5 12 -13 32 -18 45 -5 12 -21 58 -36 102 -15 44 -33 94 -40 110 -7
17 -31 80 -53 140 -85 232 -184 501 -192 520 -12 30 -45 120 -80 220 -17 50
-35 99 -40 110 -4 11 -13 36 -20 55 -7 19 -16 44 -20 55 -10 22 -62 165 -120
325 -42 117 -95 259 -135 365 -15 39 -31 81 -35 95 -5 14 -23 63 -40 110 -18
47 -41 110 -52 140 -11 30 -26 69 -33 85 -17 40 -64 165 -115 305 -23 63 -45
124 -50 135 -4 11 -13 36 -20 55 -7 19 -16 44 -21 55 -5 11 -20 52 -33 90 -13
39 -50 140 -81 225 -86 233 -152 412 -196 535 -23 61 -44 119 -49 130 -10 24
-47 125 -65 180 -7 22 -27 72 -43 111 -16 40 -33 87 -37 105 -4 19 -11 39 -14
44 -4 6 -13 24 -19 40 -6 17 -27 73 -47 125 -92 236 -136 366 -128 374 4 3
272 5 596 4 l590 -3 28 -75z m2125 67 c3 -2 6 -3458 4 -4504 0 -236 -1 -243
-20 -243 -14 0 -20 7 -20 21 0 11 5 17 10 14 6 -4 10 5 10 19 0 16 -6 26 -15
26 -8 0 -15 8 -15 18 0 35 -30 134 -46 149 -13 14 -17 14 -26 2 -8 -11 -8 -10
-4 5 4 10 1 65 -6 122 -10 90 -14 104 -30 104 -10 0 -18 -5 -18 -11 0 -5 -4
-8 -9 -5 -5 3 -6 26 -3 51 4 42 3 45 -18 45 -22 0 -23 2 -17 59 6 54 5 60 -13
66 -11 4 -20 13 -20 21 0 8 -4 14 -10 14 -5 0 -10 18 -10 40 0 28 -4 40 -14
40 -9 0 -12 -7 -9 -20 3 -11 0 -20 -6 -20 -7 0 -10 16 -7 45 2 25 0 45 -5 45
-5 0 -6 7 -3 15 4 9 0 15 -9 15 -8 0 -17 -4 -19 -9 -1 -6 -4 29 -5 76 -2 80
-10 114 -20 86 -11 -31 -23 -9 -20 35 3 26 2 35 0 19 -5 -32 -23 -27 -23 7 0
12 -5 27 -11 33 -6 6 -14 43 -17 82 -4 67 -6 71 -28 71 -20 0 -24 5 -24 29 0
17 -4 33 -10 36 -5 3 -10 1 -10 -5 0 -6 -4 -8 -10 -5 -21 13 -8 24 32 27 l42
3 -29 19 c-16 11 -35 19 -41 19 -7 0 -10 7 -7 15 3 8 1 17 -5 21 -5 3 -12 22
-13 41 -3 27 0 35 14 38 17 3 23 -15 19 -60 -1 -10 3 -18 8 -18 6 0 10 15 10
34 0 23 -9 42 -30 65 -33 34 -45 39 -36 16 3 -8 1 -15 -4 -15 -15 0 -12 58 2
62 10 4 10 10 1 29 l-12 24 0 -27 c-1 -18 -6 -28 -16 -28 -11 0 -15 11 -15 40
0 22 -4 40 -10 40 -5 0 -10 18 -10 40 0 29 -4 40 -15 40 -10 0 -15 10 -15 29
0 16 -6 31 -15 35 -10 4 -15 20 -15 51 0 25 -4 45 -10 45 -5 0 -10 18 -10 40
0 29 -4 40 -15 40 -8 0 -15 9 -15 19 0 10 -7 21 -15 25 -8 3 -15 12 -15 21 0
8 -7 15 -15 15 -17 0 -18 4 -9 49 10 46 34 40 34 -9 0 -22 5 -40 10 -40 6 0
10 18 10 39 0 32 -6 44 -31 65 -17 14 -35 26 -40 26 -5 0 -9 31 -9 69 0 39 -4
73 -10 76 -5 3 -10 -3 -10 -14 0 -12 -7 -21 -15 -21 -11 0 -15 11 -15 40 0 36
-2 40 -25 40 -21 0 -25 5 -25 31 0 17 4 28 10 24 6 -3 10 1 10 9 0 9 -4 16
-10 16 -5 0 -10 9 -10 20 0 22 -16 27 -23 8 -2 -8 -8 -9 -13 -4 -5 5 -4 11 4
13 19 7 15 43 -5 44 -11 0 -13 3 -5 6 13 5 17 73 4 73 -5 0 -14 -10 -20 -22
l-11 -23 0 23 c-1 13 -7 22 -16 22 -11 0 -15 11 -15 40 0 22 -4 40 -10 40 -5
0 -10 18 -10 40 0 70 -17 43 -27 -42 -6 -57 -10 252 -11 970 -2 579 -1 1056 2
1060 4 7 1066 6 1072 -1z m-3337 -776 c1 -35 -5 -22 -12 24 -5 28 -4 34 3 20
5 -11 9 -31 9 -44z m-11 -176 c1 22 7 47 13 55 8 12 9 11 5 -5 -3 -11 -8 -53
-12 -93 -5 -59 -4 -72 7 -70 10 2 16 26 20 83 4 66 6 52 8 -80 2 -88 6 -150 8
-137 8 40 21 23 28 -35 9 -76 16 -92 11 -25 -2 32 0 48 5 40 5 -7 9 -32 9 -56
0 -27 4 -41 10 -37 7 4 8 -8 4 -34 -6 -37 -5 -41 15 -41 11 0 21 -4 21 -10 0
-5 -4 -10 -10 -10 -5 0 -10 -13 -10 -30 0 -20 5 -30 15 -30 11 0 15 -10 14
-32 -1 -24 -3 -27 -6 -10 -6 32 -23 27 -23 -8 0 -23 4 -30 20 -30 19 0 26 -24
21 -67 -1 -7 7 -13 19 -13 11 0 20 -6 20 -14 0 -8 5 -16 11 -18 7 -2 11 -27
10 -66 -1 -49 2 -62 14 -62 9 0 15 -9 15 -24 0 -37 10 -56 31 -56 15 0 19 -7
18 -32 0 -28 -2 -30 -9 -13 -8 18 -9 17 -9 -7 -1 -23 3 -28 24 -28 23 0 25 -4
25 -40 0 -22 -4 -40 -9 -40 -19 0 1 -36 30 -52 25 -15 29 -23 29 -62 0 -39 3
-45 23 -48 17 -2 23 -10 24 -33 1 -16 0 -24 -3 -17 -9 19 -24 14 -24 -8 0 -13
7 -20 20 -20 17 0 20 -7 20 -40 0 -29 4 -40 15 -40 11 0 15 -11 15 -39 0 -22
5 -41 12 -43 7 -3 11 -19 10 -41 -2 -20 2 -37 7 -37 5 0 7 9 4 20 -8 30 4 24
21 -12 18 -35 21 -72 6 -63 -5 3 -10 -1 -10 -9 0 -10 9 -16 25 -16 23 0 25 -4
25 -40 0 -33 3 -40 19 -40 11 0 22 6 24 13 3 7 6 5 6 -5 1 -10 -3 -18 -9 -18
-5 0 -10 -15 -10 -34 0 -19 -5 -36 -11 -38 -7 -2 -7 -12 0 -32 6 -15 9 -31 7
-34 -2 -4 2 -13 10 -20 8 -7 14 -8 14 -2 0 5 7 10 15 10 10 0 15 -10 15 -30 0
-44 0 -44 16 -53 8 -5 14 -22 13 -40 -1 -30 -1 -30 -8 -7 -7 25 -8 25 -12 -6
-3 -17 -3 -36 -1 -42 5 -17 22 -15 22 3 0 8 5 15 10 15 6 0 10 -18 10 -40 0
-29 4 -40 15 -40 9 0 15 -9 15 -24 0 -35 10 -56 26 -56 9 0 14 -12 15 -32 0
-18 3 -26 6 -18 14 42 17 42 24 0 4 -25 8 -78 8 -117 1 -58 4 -73 16 -73 11 0
15 -12 17 -42 l1 -43 7 45 c4 25 8 36 9 25 l2 -20 9 20 c5 11 9 55 9 97 1 42
4 79 9 81 13 9 16 -154 16 -1248 l1 -1090 -465 0 -465 0 -1 2370 c0 1304 3
2332 6 2285 3 -47 7 -67 8 -45z m19 83 c-3 -8 -6 -5 -6 6 -1 11 2 17 5 13 3
-3 4 -12 1 -19z m40 -180 c-2 -13 -4 -3 -4 22 0 25 2 35 4 23 2 -13 2 -33 0
-45z m9 -95 c-11 -11 -19 6 -11 24 8 17 8 17 12 0 3 -10 2 -21 -1 -24z m157
-453 c3 -11 1 -18 -4 -14 -5 3 -9 12 -9 20 0 20 7 17 13 -6z m53 -107 c-7 -7
-26 7 -26 19 0 6 6 6 15 -2 9 -7 13 -15 11 -17z m94 -258 c0 -8 -2 -15 -4 -15
-2 0 -6 7 -10 15 -3 8 -1 15 4 15 6 0 10 -7 10 -15z m40 -143 c0 -15 -2 -15
-10 -2 -13 20 -13 33 0 25 6 -3 10 -14 10 -23z m20 -58 c0 -8 -4 -14 -10 -14
-5 0 -10 9 -10 21 0 11 5 17 10 14 6 -3 10 -13 10 -21z m40 -95 c0 -6 -4 -7
-10 -4 -5 3 -10 11 -10 16 0 6 5 7 10 4 6 -3 10 -11 10 -16z m10 -64 c0 -8 -2
-15 -4 -15 -2 0 -6 7 -10 15 -3 8 -1 15 4 15 6 0 10 -7 10 -15z m17 -62 c-3
-10 -5 -4 -5 12 0 17 2 24 5 18 2 -7 2 -21 0 -30z m2013 -133 c0 -5 -2 -10 -4
-10 -3 0 -8 5 -11 10 -3 6 -1 10 4 10 6 0 11 -4 11 -10z m100 -286 c0 -13 -4
-24 -10 -24 -5 0 -10 14 -10 31 0 17 4 28 10 24 6 -3 10 -17 10 -31z m-1900
-94 c0 -5 -2 -10 -4 -10 -3 0 -8 5 -11 10 -3 6 -1 10 4 10 6 0 11 -4 11 -10z
m2017 -242 c-3 -7 -5 -2 -5 12 0 14 2 19 5 13 2 -7 2 -19 0 -25z m-1852 -169
c6 -67 4 -76 -10 -76 -15 0 -16 10 -10 81 4 57 3 77 -4 66 -6 -8 -11 -10 -11
-4 0 15 12 26 21 17 4 -5 10 -42 14 -84z m-30 1 c-4 -23 -9 -39 -11 -37 -3 2
-2 23 2 46 4 23 9 40 11 37 3 -3 2 -23 -2 -46z m2005 -180 c0 -5 -2 -10 -4
-10 -3 0 -8 5 -11 10 -3 6 -1 10 4 10 6 0 11 -4 11 -10z m140 -321 c0 -11 -4
-17 -10 -14 -5 3 -10 13 -10 21 0 8 5 14 10 14 6 0 10 -9 10 -21z m114 -364
c3 -8 1 -15 -4 -15 -6 0 -10 7 -10 15 0 8 2 15 4 15 2 0 6 -7 10 -15z m46
-116 c0 -6 -4 -7 -10 -4 -5 3 -10 11 -10 16 0 6 5 7 10 4 6 -3 10 -11 10 -16z
m57 -131 c-3 -7 -5 -2 -5 12 0 14 2 19 5 13 2 -7 2 -19 0 -25z m140 -450 c-2
-24 -4 -7 -4 37 0 44 2 63 4 43 2 -21 2 -57 0 -80z"/>
<path d="M7183 7165 c0 -22 2 -30 4 -17 2 12 2 30 0 40 -3 9 -5 -1 -4 -23z"/>
<path d="M5440 6346 c0 -8 5 -18 10 -21 6 -3 10 3 10 14 0 12 -4 21 -10 21 -5
0 -10 -6 -10 -14z"/>
<path d="M5733 5800 c0 -25 2 -35 4 -22 2 12 2 32 0 45 -2 12 -4 2 -4 -23z"/>
<path d="M5683 5560 c0 -25 2 -35 4 -22 2 12 2 32 0 45 -2 12 -4 2 -4 -23z"/>
</g>
</svg>
